<?xml version="1.0" encoding="UTF-8" standalone="no"?>
<!DOCTYPE svg PUBLIC "-//W3C//DTD SVG 1.1//EN"
 "http://www.w3.org/Graphics/SVG/1.1/DTD/svg11.dtd">
<!-- Generated by graphviz version 2.38.0 (20140413.2041)
 -->
<!-- Title: %3 Pages: 1 -->
<svg width="2736pt" height="764pt"
 viewBox="0.00 0.00 2736.07 764.00" xmlns="http://www.w3.org/2000/svg" xmlns:xlink="http://www.w3.org/1999/xlink">
<g id="graph0" class="graph" transform="scale(1 1) rotate(0) translate(4 760)">
<title>%3</title>
<polygon fill="white" stroke="none" points="-4,4 -4,-760 2732.07,-760 2732.07,4 -4,4"/>
<!-- [root] aws_elb.web -->
<g id="node1" class="node"><title>[root] aws_elb.web</title>
<polygon fill="none" stroke="black" points="1682.13,-540 1575.13,-540 1575.13,-504 1682.13,-504 1682.13,-540"/>
<text text-anchor="middle" x="1628.63" y="-518.3" font-family="Times,serif" font-size="14.00">aws_elb.web</text>
</g>
<!-- [root] aws_instance.web -->
<g id="node2" class="node"><title>[root] aws_instance.web</title>
<polygon fill="none" stroke="black" points="1368.63,-468 1222.63,-468 1222.63,-432 1368.63,-432 1368.63,-468"/>
<text text-anchor="middle" x="1295.63" y="-446.3" font-family="Times,serif" font-size="14.00">aws_instance.web</text>
</g>
<!-- [root] aws_elb.web&#45;&gt;[root] aws_instance.web -->
<g id="edge1" class="edge"><title>[root] aws_elb.web&#45;&gt;[root] aws_instance.web</title>
<path fill="none" stroke="black" d="M1575.13,-509.753C1522.19,-498.624 1440.38,-481.428 1378.93,-468.51"/>
<polygon fill="black" stroke="black" points="1379.37,-465.026 1368.86,-466.394 1377.93,-471.877 1379.37,-465.026"/>
</g>
<!-- [root] aws_security_group.web_inbound_sg -->
<g id="node4" class="node"><title>[root] aws_security_group.web_inbound_sg</title>
<polygon fill="none" stroke="black" points="1985.13,-468 1702.13,-468 1702.13,-432 1985.13,-432 1985.13,-468"/>
<text text-anchor="middle" x="1843.63" y="-446.3" font-family="Times,serif" font-size="14.00">aws_security_group.web_inbound_sg</text>
</g>
<!-- [root] aws_elb.web&#45;&gt;[root] aws_security_group.web_inbound_sg -->
<g id="edge2" class="edge"><title>[root] aws_elb.web&#45;&gt;[root] aws_security_group.web_inbound_sg</title>
<path fill="none" stroke="black" d="M1680.95,-503.966C1711.25,-494.1 1749.58,-481.622 1781.42,-471.255"/>
<polygon fill="black" stroke="black" points="1782.65,-474.535 1791.08,-468.111 1780.48,-467.879 1782.65,-474.535"/>
</g>
<!-- [root] aws_security_group.web_host_sg -->
<g id="node3" class="node"><title>[root] aws_security_group.web_host_sg</title>
<polygon fill="none" stroke="black" points="2066.63,-396 1810.63,-396 1810.63,-360 2066.63,-360 2066.63,-396"/>
<text text-anchor="middle" x="1938.63" y="-374.3" font-family="Times,serif" font-size="14.00">aws_security_group.web_host_sg</text>
</g>
<!-- [root] aws_instance.web&#45;&gt;[root] aws_security_group.web_host_sg -->
<g id="edge3" class="edge"><title>[root] aws_instance.web&#45;&gt;[root] aws_security_group.web_host_sg</title>
<path fill="none" stroke="black" d="M1369,-441.759C1465.46,-432.139 1640.48,-414.343 1800.28,-396.144"/>
<polygon fill="black" stroke="black" points="1800.76,-399.612 1810.29,-395.001 1799.96,-392.658 1800.76,-399.612"/>
</g>
<!-- [root] module.vpc.output.public_subnet_id -->
<g id="node11" class="node"><title>[root] module.vpc.output.public_subnet_id</title>
<ellipse fill="none" stroke="black" cx="208.631" cy="-378" rx="208.763" ry="18"/>
<text text-anchor="middle" x="208.631" y="-374.3" font-family="Times,serif" font-size="14.00">[root] module.vpc.output.public_subnet_id</text>
</g>
<!-- [root] aws_instance.web&#45;&gt;[root] module.vpc.output.public_subnet_id -->
<g id="edge4" class="edge"><title>[root] aws_instance.web&#45;&gt;[root] module.vpc.output.public_subnet_id</title>
<path fill="none" stroke="black" d="M1222.56,-444.978C1072.95,-436.647 720.94,-416.561 425.631,-396 406.032,-394.635 385.442,-393.124 365.074,-391.581"/>
<polygon fill="black" stroke="black" points="365.335,-388.091 355.098,-390.822 364.803,-395.071 365.335,-388.091"/>
</g>
<!-- [root] var.ami -->
<g id="node12" class="node"><title>[root] var.ami</title>
<ellipse fill="none" stroke="black" cx="1719.63" cy="-378" rx="73.387" ry="18"/>
<text text-anchor="middle" x="1719.63" y="-374.3" font-family="Times,serif" font-size="14.00">[root] var.ami</text>
</g>
<!-- [root] aws_instance.web&#45;&gt;[root] var.ami -->
<g id="edge5" class="edge"><title>[root] aws_instance.web&#45;&gt;[root] var.ami</title>
<path fill="none" stroke="black" d="M1368.64,-438.685C1437.8,-428.669 1544.5,-412.585 1636.63,-396 1642.9,-394.871 1649.43,-393.638 1655.94,-392.368"/>
<polygon fill="black" stroke="black" points="1657,-395.726 1666.13,-390.351 1655.64,-388.859 1657,-395.726"/>
</g>
<!-- [root] var.environment -->
<g id="node13" class="node"><title>[root] var.environment</title>
<ellipse fill="none" stroke="black" cx="550.631" cy="-378" rx="115.88" ry="18"/>
<text text-anchor="middle" x="550.631" y="-374.3" font-family="Times,serif" font-size="14.00">[root] var.environment</text>
</g>
<!-- [root] aws_instance.web&#45;&gt;[root] var.environment -->
<g id="edge6" class="edge"><title>[root] aws_instance.web&#45;&gt;[root] var.environment</title>
<path fill="none" stroke="black" d="M1222.5,-443.936C1106.42,-435.631 872.935,-417.836 675.631,-396 664.965,-394.82 653.802,-393.468 642.724,-392.054"/>
<polygon fill="black" stroke="black" points="642.957,-388.556 632.591,-390.742 642.058,-395.498 642.957,-388.556"/>
</g>
<!-- [root] var.instance_ips -->
<g id="node14" class="node"><title>[root] var.instance_ips</title>
<ellipse fill="none" stroke="black" cx="798.631" cy="-378" rx="114.28" ry="18"/>
<text text-anchor="middle" x="798.631" y="-374.3" font-family="Times,serif" font-size="14.00">[root] var.instance_ips</text>
</g>
<!-- [root] aws_instance.web&#45;&gt;[root] var.instance_ips -->
<g id="edge7" class="edge"><title>[root] aws_instance.web&#45;&gt;[root] var.instance_ips</title>
<path fill="none" stroke="black" d="M1222.56,-438.709C1134.48,-426.303 986.382,-405.444 890.606,-391.954"/>
<polygon fill="black" stroke="black" points="891.029,-388.479 880.639,-390.55 890.053,-395.411 891.029,-388.479"/>
</g>
<!-- [root] var.instance_type -->
<g id="node15" class="node"><title>[root] var.instance_type</title>
<ellipse fill="none" stroke="black" cx="1052.63" cy="-378" rx="121.578" ry="18"/>
<text text-anchor="middle" x="1052.63" y="-374.3" font-family="Times,serif" font-size="14.00">[root] var.instance_type</text>
</g>
<!-- [root] aws_instance.web&#45;&gt;[root] var.instance_type -->
<g id="edge8" class="edge"><title>[root] aws_instance.web&#45;&gt;[root] var.instance_type</title>
<path fill="none" stroke="black" d="M1236.5,-431.966C1199.87,-421.415 1152.87,-407.877 1115.56,-397.128"/>
<polygon fill="black" stroke="black" points="1116.38,-393.723 1105.81,-394.318 1114.45,-400.449 1116.38,-393.723"/>
</g>
<!-- [root] var.key_name -->
<g id="node16" class="node"><title>[root] var.key_name</title>
<ellipse fill="none" stroke="black" cx="1295.63" cy="-378" rx="103.182" ry="18"/>
<text text-anchor="middle" x="1295.63" y="-374.3" font-family="Times,serif" font-size="14.00">[root] var.key_name</text>
</g>
<!-- [root] aws_instance.web&#45;&gt;[root] var.key_name -->
<g id="edge9" class="edge"><title>[root] aws_instance.web&#45;&gt;[root] var.key_name</title>
<path fill="none" stroke="black" d="M1295.63,-431.697C1295.63,-423.983 1295.63,-414.712 1295.63,-406.112"/>
<polygon fill="black" stroke="black" points="1299.13,-406.104 1295.63,-396.104 1292.13,-406.104 1299.13,-406.104"/>
</g>
<!-- [root] var.owner_tag -->
<g id="node17" class="node"><title>[root] var.owner_tag</title>
<ellipse fill="none" stroke="black" cx="1522.63" cy="-378" rx="105.082" ry="18"/>
<text text-anchor="middle" x="1522.63" y="-374.3" font-family="Times,serif" font-size="14.00">[root] var.owner_tag</text>
</g>
<!-- [root] aws_instance.web&#45;&gt;[root] var.owner_tag -->
<g id="edge10" class="edge"><title>[root] aws_instance.web&#45;&gt;[root] var.owner_tag</title>
<path fill="none" stroke="black" d="M1350.87,-431.966C1385.18,-421.386 1429.23,-407.802 1464.13,-397.039"/>
<polygon fill="black" stroke="black" points="1465.19,-400.375 1473.72,-394.084 1463.13,-393.686 1465.19,-400.375"/>
</g>
<!-- [root] module.vpc.output.cidr -->
<g id="node18" class="node"><title>[root] module.vpc.output.cidr</title>
<ellipse fill="none" stroke="black" cx="1618.63" cy="-306" rx="148.374" ry="18"/>
<text text-anchor="middle" x="1618.63" y="-302.3" font-family="Times,serif" font-size="14.00">[root] module.vpc.output.cidr</text>
</g>
<!-- [root] aws_security_group.web_host_sg&#45;&gt;[root] module.vpc.output.cidr -->
<g id="edge11" class="edge"><title>[root] aws_security_group.web_host_sg&#45;&gt;[root] module.vpc.output.cidr</title>
<path fill="none" stroke="black" d="M1860.76,-359.966C1811.09,-349.1 1746.92,-335.064 1697.13,-324.171"/>
<polygon fill="black" stroke="black" points="1697.57,-320.685 1687.05,-321.967 1696.07,-327.523 1697.57,-320.685"/>
</g>
<!-- [root] module.vpc.output.vpc_id -->
<g id="node19" class="node"><title>[root] module.vpc.output.vpc_id</title>
<ellipse fill="none" stroke="black" cx="1944.63" cy="-306" rx="159.772" ry="18"/>
<text text-anchor="middle" x="1944.63" y="-302.3" font-family="Times,serif" font-size="14.00">[root] module.vpc.output.vpc_id</text>
</g>
<!-- [root] aws_security_group.web_host_sg&#45;&gt;[root] module.vpc.output.vpc_id -->
<g id="edge12" class="edge"><title>[root] aws_security_group.web_host_sg&#45;&gt;[root] module.vpc.output.vpc_id</title>
<path fill="none" stroke="black" d="M1940.11,-359.697C1940.78,-351.983 1941.57,-342.712 1942.31,-334.112"/>
<polygon fill="black" stroke="black" points="1945.8,-334.367 1943.17,-324.104 1938.82,-333.769 1945.8,-334.367"/>
</g>
<!-- [root] aws_security_group.web_inbound_sg&#45;&gt;[root] module.vpc.output.vpc_id -->
<g id="edge13" class="edge"><title>[root] aws_security_group.web_inbound_sg&#45;&gt;[root] module.vpc.output.vpc_id</title>
<path fill="none" stroke="black" d="M1982.43,-431.998C2024.34,-423.831 2062.72,-412.192 2075.63,-396 2085.61,-383.49 2084.58,-373.267 2075.63,-360 2065.16,-344.466 2049.28,-333.484 2032.15,-325.72"/>
<polygon fill="black" stroke="black" points="2033.11,-322.329 2022.53,-321.729 2030.43,-328.794 2033.11,-322.329"/>
</g>
<!-- [root] module.vpc.aws_internet_gateway.tfb -->
<g id="node5" class="node"><title>[root] module.vpc.aws_internet_gateway.tfb</title>
<polygon fill="none" stroke="black" points="2009.13,-540 1722.13,-540 1722.13,-504 2009.13,-504 2009.13,-540"/>
<text text-anchor="middle" x="1865.63" y="-518.3" font-family="Times,serif" font-size="14.00">module.vpc.aws_internet_gateway.tfb</text>
</g>
<!-- [root] module.vpc.aws_vpc.tfb -->
<g id="node8" class="node"><title>[root] module.vpc.aws_vpc.tfb</title>
<polygon fill="none" stroke="black" points="1878.13,-252 1689.13,-252 1689.13,-216 1878.13,-216 1878.13,-252"/>
<text text-anchor="middle" x="1783.63" y="-230.3" font-family="Times,serif" font-size="14.00">module.vpc.aws_vpc.tfb</text>
</g>
<!-- [root] module.vpc.aws_internet_gateway.tfb&#45;&gt;[root] module.vpc.aws_vpc.tfb -->
<g id="edge18" class="edge"><title>[root] module.vpc.aws_internet_gateway.tfb&#45;&gt;[root] module.vpc.aws_vpc.tfb</title>
<path fill="none" stroke="black" d="M1927.99,-503.917C1980.89,-486.02 2054.26,-452.471 2093.63,-396 2121.55,-355.956 2145.29,-325.154 2113.63,-288 2084.99,-254.386 1973.73,-242.008 1888.23,-237.496"/>
<polygon fill="black" stroke="black" points="1888.37,-233.998 1878.2,-236.996 1888.02,-240.99 1888.37,-233.998"/>
</g>
<!-- [root] module.vpc.aws_route.internet_access -->
<g id="node6" class="node"><title>[root] module.vpc.aws_route.internet_access</title>
<polygon fill="none" stroke="black" points="1894.13,-612 1599.13,-612 1599.13,-576 1894.13,-576 1894.13,-612"/>
<text text-anchor="middle" x="1746.63" y="-590.3" font-family="Times,serif" font-size="14.00">module.vpc.aws_route.internet_access</text>
</g>
<!-- [root] module.vpc.aws_route.internet_access&#45;&gt;[root] module.vpc.aws_internet_gateway.tfb -->
<g id="edge19" class="edge"><title>[root] module.vpc.aws_route.internet_access&#45;&gt;[root] module.vpc.aws_internet_gateway.tfb</title>
<path fill="none" stroke="black" d="M1775.74,-575.876C1791.3,-566.724 1810.65,-555.342 1827.41,-545.485"/>
<polygon fill="black" stroke="black" points="1829.56,-548.277 1836.41,-540.19 1826.01,-542.243 1829.56,-548.277"/>
</g>
<!-- [root] module.vpc.aws_subnet.public -->
<g id="node7" class="node"><title>[root] module.vpc.aws_subnet.public</title>
<polygon fill="none" stroke="black" points="1449.63,-324 1213.63,-324 1213.63,-288 1449.63,-288 1449.63,-324"/>
<text text-anchor="middle" x="1331.63" y="-302.3" font-family="Times,serif" font-size="14.00">module.vpc.aws_subnet.public</text>
</g>
<!-- [root] module.vpc.aws_subnet.public&#45;&gt;[root] module.vpc.aws_vpc.tfb -->
<g id="edge20" class="edge"><title>[root] module.vpc.aws_subnet.public&#45;&gt;[root] module.vpc.aws_vpc.tfb</title>
<path fill="none" stroke="black" d="M1441.63,-287.966C1513.88,-276.776 1607.83,-262.225 1678.98,-251.207"/>
<polygon fill="black" stroke="black" points="1679.52,-254.666 1688.86,-249.677 1678.45,-247.748 1679.52,-254.666"/>
</g>
<!-- [root] module.vpc.var.public_subnet -->
<g id="node24" class="node"><title>[root] module.vpc.var.public_subnet</title>
<ellipse fill="none" stroke="black" cx="1331.63" cy="-234" rx="178.969" ry="18"/>
<text text-anchor="middle" x="1331.63" y="-230.3" font-family="Times,serif" font-size="14.00">[root] module.vpc.var.public_subnet</text>
</g>
<!-- [root] module.vpc.aws_subnet.public&#45;&gt;[root] module.vpc.var.public_subnet -->
<g id="edge21" class="edge"><title>[root] module.vpc.aws_subnet.public&#45;&gt;[root] module.vpc.var.public_subnet</title>
<path fill="none" stroke="black" d="M1331.63,-287.697C1331.63,-279.983 1331.63,-270.712 1331.63,-262.112"/>
<polygon fill="black" stroke="black" points="1335.13,-262.104 1331.63,-252.104 1328.13,-262.104 1335.13,-262.104"/>
</g>
<!-- [root] module.vpc.provider.aws -->
<g id="node9" class="node"><title>[root] module.vpc.provider.aws</title>
<polygon fill="none" stroke="black" points="1084.63,-180 905.16,-162 1084.63,-144 1264.1,-162 1084.63,-180"/>
<text text-anchor="middle" x="1084.63" y="-158.3" font-family="Times,serif" font-size="14.00">module.vpc.provider.aws</text>
</g>
<!-- [root] module.vpc.aws_vpc.tfb&#45;&gt;[root] module.vpc.provider.aws -->
<g id="edge22" class="edge"><title>[root] module.vpc.aws_vpc.tfb&#45;&gt;[root] module.vpc.provider.aws</title>
<path fill="none" stroke="black" d="M1689,-223.523C1555.59,-210.164 1313.63,-185.932 1179.89,-172.539"/>
<polygon fill="black" stroke="black" points="1179.96,-169.029 1169.66,-171.515 1179.26,-175.994 1179.96,-169.029"/>
</g>
<!-- [root] module.vpc.var.cidr -->
<g id="node25" class="node"><title>[root] module.vpc.var.cidr</title>
<ellipse fill="none" stroke="black" cx="1413.63" cy="-162" rx="131.877" ry="18"/>
<text text-anchor="middle" x="1413.63" y="-158.3" font-family="Times,serif" font-size="14.00">[root] module.vpc.var.cidr</text>
</g>
<!-- [root] module.vpc.aws_vpc.tfb&#45;&gt;[root] module.vpc.var.cidr -->
<g id="edge23" class="edge"><title>[root] module.vpc.aws_vpc.tfb&#45;&gt;[root] module.vpc.var.cidr</title>
<path fill="none" stroke="black" d="M1693.59,-215.966C1633.84,-204.661 1555.95,-189.926 1497.51,-178.868"/>
<polygon fill="black" stroke="black" points="1498.04,-175.407 1487.56,-176.987 1496.74,-182.285 1498.04,-175.407"/>
</g>
<!-- [root] module.vpc.var.enable_dns_hostnames -->
<g id="node26" class="node"><title>[root] module.vpc.var.enable_dns_hostnames</title>
<ellipse fill="none" stroke="black" cx="1783.63" cy="-162" rx="220.161" ry="18"/>
<text text-anchor="middle" x="1783.63" y="-158.3" font-family="Times,serif" font-size="14.00">[root] module.vpc.var.enable_dns_hostnames</text>
</g>
<!-- [root] module.vpc.aws_vpc.tfb&#45;&gt;[root] module.vpc.var.enable_dns_hostnames -->
<g id="edge24" class="edge"><title>[root] module.vpc.aws_vpc.tfb&#45;&gt;[root] module.vpc.var.enable_dns_hostnames</title>
<path fill="none" stroke="black" d="M1783.63,-215.697C1783.63,-207.983 1783.63,-198.712 1783.63,-190.112"/>
<polygon fill="black" stroke="black" points="1787.13,-190.104 1783.63,-180.104 1780.13,-190.104 1787.13,-190.104"/>
</g>
<!-- [root] module.vpc.var.enable_dns_support -->
<g id="node27" class="node"><title>[root] module.vpc.var.enable_dns_support</title>
<ellipse fill="none" stroke="black" cx="2227.63" cy="-162" rx="206.063" ry="18"/>
<text text-anchor="middle" x="2227.63" y="-158.3" font-family="Times,serif" font-size="14.00">[root] module.vpc.var.enable_dns_support</text>
</g>
<!-- [root] module.vpc.aws_vpc.tfb&#45;&gt;[root] module.vpc.var.enable_dns_support -->
<g id="edge25" class="edge"><title>[root] module.vpc.aws_vpc.tfb&#45;&gt;[root] module.vpc.var.enable_dns_support</title>
<path fill="none" stroke="black" d="M1878.34,-218.069C1949.85,-206.794 2047.98,-191.323 2122.02,-179.65"/>
<polygon fill="black" stroke="black" points="2122.97,-183.043 2132.31,-178.029 2121.88,-176.129 2122.97,-183.043"/>
</g>
<!-- [root] module.vpc.var.name -->
<g id="node28" class="node"><title>[root] module.vpc.var.name</title>
<ellipse fill="none" stroke="black" cx="2589.63" cy="-162" rx="138.375" ry="18"/>
<text text-anchor="middle" x="2589.63" y="-158.3" font-family="Times,serif" font-size="14.00">[root] module.vpc.var.name</text>
</g>
<!-- [root] module.vpc.aws_vpc.tfb&#45;&gt;[root] module.vpc.var.name -->
<g id="edge26" class="edge"><title>[root] module.vpc.aws_vpc.tfb&#45;&gt;[root] module.vpc.var.name</title>
<path fill="none" stroke="black" d="M1878.39,-226.422C2006.5,-217.29 2242.01,-199.662 2442.63,-180 2455.37,-178.752 2468.71,-177.346 2481.94,-175.891"/>
<polygon fill="black" stroke="black" points="2482.48,-179.353 2492.03,-174.771 2481.7,-172.396 2482.48,-179.353"/>
</g>
<!-- [root] provider.aws -->
<g id="node10" class="node"><title>[root] provider.aws</title>
<polygon fill="none" stroke="black" points="1084.63,-108 985.593,-90 1084.63,-72 1183.67,-90 1084.63,-108"/>
<text text-anchor="middle" x="1084.63" y="-86.3" font-family="Times,serif" font-size="14.00">provider.aws</text>
</g>
<!-- [root] module.vpc.provider.aws&#45;&gt;[root] provider.aws -->
<g id="edge30" class="edge"><title>[root] module.vpc.provider.aws&#45;&gt;[root] provider.aws</title>
<path fill="none" stroke="black" d="M1084.63,-143.697C1084.63,-135.983 1084.63,-126.712 1084.63,-118.112"/>
<polygon fill="black" stroke="black" points="1088.13,-118.104 1084.63,-108.104 1081.13,-118.104 1088.13,-118.104"/>
</g>
<!-- [root] var.region -->
<g id="node30" class="node"><title>[root] var.region</title>
<ellipse fill="none" stroke="black" cx="1084.63" cy="-18" rx="86.3847" ry="18"/>
<text text-anchor="middle" x="1084.63" y="-14.3" font-family="Times,serif" font-size="14.00">[root] var.region</text>
</g>
<!-- [root] provider.aws&#45;&gt;[root] var.region -->
<g id="edge36" class="edge"><title>[root] provider.aws&#45;&gt;[root] var.region</title>
<path fill="none" stroke="black" d="M1084.63,-71.6966C1084.63,-63.9827 1084.63,-54.7125 1084.63,-46.1124"/>
<polygon fill="black" stroke="black" points="1088.13,-46.1043 1084.63,-36.1043 1081.13,-46.1044 1088.13,-46.1043"/>
</g>
<!-- [root] module.vpc.output.public_subnet_id&#45;&gt;[root] module.vpc.aws_subnet.public -->
<g id="edge28" class="edge"><title>[root] module.vpc.output.public_subnet_id&#45;&gt;[root] module.vpc.aws_subnet.public</title>
<path fill="none" stroke="black" d="M354.802,-365.152C378.475,-363.347 402.728,-361.567 425.631,-360 702.805,-341.038 1027.98,-323.053 1203.53,-313.695"/>
<polygon fill="black" stroke="black" points="1203.78,-317.187 1213.58,-313.16 1203.41,-310.197 1203.78,-317.187"/>
</g>
<!-- [root] module.vpc.output.cidr&#45;&gt;[root] module.vpc.aws_vpc.tfb -->
<g id="edge27" class="edge"><title>[root] module.vpc.output.cidr&#45;&gt;[root] module.vpc.aws_vpc.tfb</title>
<path fill="none" stroke="black" d="M1657.32,-288.588C1680.19,-278.885 1709.39,-266.496 1733.95,-256.075"/>
<polygon fill="black" stroke="black" points="1735.63,-259.168 1743.47,-252.04 1732.89,-252.724 1735.63,-259.168"/>
</g>
<!-- [root] module.vpc.output.vpc_id&#45;&gt;[root] module.vpc.aws_vpc.tfb -->
<g id="edge29" class="edge"><title>[root] module.vpc.output.vpc_id&#45;&gt;[root] module.vpc.aws_vpc.tfb</title>
<path fill="none" stroke="black" d="M1906.48,-288.411C1884.23,-278.739 1855.95,-266.444 1832.14,-256.089"/>
<polygon fill="black" stroke="black" points="1833.48,-252.856 1822.91,-252.078 1830.69,-259.276 1833.48,-252.856"/>
</g>
<!-- [root] meta.count&#45;boundary (count boundary fixup) -->
<g id="node20" class="node"><title>[root] meta.count&#45;boundary (count boundary fixup)</title>
<ellipse fill="none" stroke="black" cx="1400.63" cy="-666" rx="247.756" ry="18"/>
<text text-anchor="middle" x="1400.63" y="-662.3" font-family="Times,serif" font-size="14.00">[root] meta.count&#45;boundary (count boundary fixup)</text>
</g>
<!-- [root] meta.count&#45;boundary (count boundary fixup)&#45;&gt;[root] module.vpc.aws_route.internet_access -->
<g id="edge14" class="edge"><title>[root] meta.count&#45;boundary (count boundary fixup)&#45;&gt;[root] module.vpc.aws_route.internet_access</title>
<path fill="none" stroke="black" d="M1480.01,-648.941C1531.38,-638.548 1598.51,-624.967 1652.56,-614.032"/>
<polygon fill="black" stroke="black" points="1653.38,-617.436 1662.49,-612.023 1652,-610.575 1653.38,-617.436"/>
</g>
<!-- [root] output.addresses -->
<g id="node21" class="node"><title>[root] output.addresses</title>
<ellipse fill="none" stroke="black" cx="1295.63" cy="-522" rx="120.479" ry="18"/>
<text text-anchor="middle" x="1295.63" y="-518.3" font-family="Times,serif" font-size="14.00">[root] output.addresses</text>
</g>
<!-- [root] meta.count&#45;boundary (count boundary fixup)&#45;&gt;[root] output.addresses -->
<g id="edge15" class="edge"><title>[root] meta.count&#45;boundary (count boundary fixup)&#45;&gt;[root] output.addresses</title>
<path fill="none" stroke="black" d="M1359.03,-648.094C1342.88,-639.547 1325.65,-627.62 1314.63,-612 1301.93,-594.002 1297.43,-569.211 1295.96,-550.365"/>
<polygon fill="black" stroke="black" points="1299.46,-550.115 1295.42,-540.32 1292.47,-550.494 1299.46,-550.115"/>
</g>
<!-- [root] output.elb_address -->
<g id="node22" class="node"><title>[root] output.elb_address</title>
<ellipse fill="none" stroke="black" cx="1452.63" cy="-594" rx="128.877" ry="18"/>
<text text-anchor="middle" x="1452.63" y="-590.3" font-family="Times,serif" font-size="14.00">[root] output.elb_address</text>
</g>
<!-- [root] meta.count&#45;boundary (count boundary fixup)&#45;&gt;[root] output.elb_address -->
<g id="edge16" class="edge"><title>[root] meta.count&#45;boundary (count boundary fixup)&#45;&gt;[root] output.elb_address</title>
<path fill="none" stroke="black" d="M1413.49,-647.697C1419.66,-639.389 1427.17,-629.277 1433.96,-620.141"/>
<polygon fill="black" stroke="black" points="1436.77,-622.219 1439.93,-612.104 1431.15,-618.045 1436.77,-622.219"/>
</g>
<!-- [root] output.public_subnet_id -->
<g id="node23" class="node"><title>[root] output.public_subnet_id</title>
<ellipse fill="none" stroke="black" cx="630.631" cy="-450" rx="152.173" ry="18"/>
<text text-anchor="middle" x="630.631" y="-446.3" font-family="Times,serif" font-size="14.00">[root] output.public_subnet_id</text>
</g>
<!-- [root] meta.count&#45;boundary (count boundary fixup)&#45;&gt;[root] output.public_subnet_id -->
<g id="edge17" class="edge"><title>[root] meta.count&#45;boundary (count boundary fixup)&#45;&gt;[root] output.public_subnet_id</title>
<path fill="none" stroke="black" d="M1341.17,-648.475C1199.96,-609.23 845.224,-510.64 697.166,-469.491"/>
<polygon fill="black" stroke="black" points="697.865,-466.053 687.293,-466.747 695.99,-472.797 697.865,-466.053"/>
</g>
<!-- [root] output.addresses&#45;&gt;[root] aws_instance.web -->
<g id="edge31" class="edge"><title>[root] output.addresses&#45;&gt;[root] aws_instance.web</title>
<path fill="none" stroke="black" d="M1295.63,-503.697C1295.63,-495.983 1295.63,-486.712 1295.63,-478.112"/>
<polygon fill="black" stroke="black" points="1299.13,-478.104 1295.63,-468.104 1292.13,-478.104 1299.13,-478.104"/>
</g>
<!-- [root] output.elb_address&#45;&gt;[root] aws_elb.web -->
<g id="edge32" class="edge"><title>[root] output.elb_address&#45;&gt;[root] aws_elb.web</title>
<path fill="none" stroke="black" d="M1493.45,-576.765C1518.14,-566.945 1549.87,-554.327 1576.38,-543.783"/>
<polygon fill="black" stroke="black" points="1577.89,-546.949 1585.89,-540.001 1575.3,-540.444 1577.89,-546.949"/>
</g>
<!-- [root] output.public_subnet_id&#45;&gt;[root] module.vpc.output.public_subnet_id -->
<g id="edge33" class="edge"><title>[root] output.public_subnet_id&#45;&gt;[root] module.vpc.output.public_subnet_id</title>
<path fill="none" stroke="black" d="M546.248,-435.003C478.25,-423.723 382.412,-407.826 310.209,-395.849"/>
<polygon fill="black" stroke="black" points="310.621,-392.37 300.183,-394.186 309.475,-399.276 310.621,-392.37"/>
</g>
<!-- [root] provider.aws (close) -->
<g id="node29" class="node"><title>[root] provider.aws (close)</title>
<ellipse fill="none" stroke="black" cx="1798.63" cy="-666" rx="132.677" ry="18"/>
<text text-anchor="middle" x="1798.63" y="-662.3" font-family="Times,serif" font-size="14.00">[root] provider.aws (close)</text>
</g>
<!-- [root] provider.aws (close)&#45;&gt;[root] aws_elb.web -->
<g id="edge34" class="edge"><title>[root] provider.aws (close)&#45;&gt;[root] aws_elb.web</title>
<path fill="none" stroke="black" d="M1854.53,-649.671C1873.13,-641.619 1891.83,-629.625 1902.63,-612 1910.99,-598.357 1912.84,-588.322 1902.63,-576 1875.22,-542.905 1754.8,-548.262 1712.63,-540 1706.06,-538.712 1699.2,-537.352 1692.36,-535.984"/>
<polygon fill="black" stroke="black" points="1692.88,-532.518 1682.39,-533.982 1691.5,-539.381 1692.88,-532.518"/>
</g>
<!-- [root] provider.aws (close)&#45;&gt;[root] module.vpc.aws_route.internet_access -->
<g id="edge35" class="edge"><title>[root] provider.aws (close)&#45;&gt;[root] module.vpc.aws_route.internet_access</title>
<path fill="none" stroke="black" d="M1786.04,-648.055C1779.88,-639.753 1772.32,-629.584 1765.48,-620.378"/>
<polygon fill="black" stroke="black" points="1768.24,-618.216 1759.46,-612.275 1762.62,-622.39 1768.24,-618.216"/>
</g>
<!-- [root] root -->
<g id="node31" class="node"><title>[root] root</title>
<ellipse fill="none" stroke="black" cx="1599.63" cy="-738" rx="58.4896" ry="18"/>
<text text-anchor="middle" x="1599.63" y="-734.3" font-family="Times,serif" font-size="14.00">[root] root</text>
</g>
<!-- [root] root&#45;&gt;[root] meta.count&#45;boundary (count boundary fixup) -->
<g id="edge37" class="edge"><title>[root] root&#45;&gt;[root] meta.count&#45;boundary (count boundary fixup)</title>
<path fill="none" stroke="black" d="M1562.67,-723.998C1533.31,-713.67 1491.73,-699.044 1458.04,-687.195"/>
<polygon fill="black" stroke="black" points="1458.91,-683.79 1448.32,-683.773 1456.59,-690.393 1458.91,-683.79"/>
</g>
<!-- [root] root&#45;&gt;[root] provider.aws (close) -->
<g id="edge38" class="edge"><title>[root] root&#45;&gt;[root] provider.aws (close)</title>
<path fill="none" stroke="black" d="M1636.6,-723.998C1666.57,-713.454 1709.28,-698.431 1743.32,-686.455"/>
<polygon fill="black" stroke="black" points="1744.86,-689.625 1753.13,-683.005 1742.54,-683.022 1744.86,-689.625"/>
</g>
</g>
</svg>
